<svg xmlns="http://www.w3.org/2000/svg" fill="none" viewBox="0 0 44 44"><path fill="currentColor" d="M43.602 20.941C40.802 16.501 33.092 9 22 9 10.909 9 3.198 16.5.398 20.941a2.61 2.61 0 0 0 0 2.77c2.8 4.44 10.51 11.942 21.602 11.942 11.091 0 18.802-7.501 21.602-11.941a2.61 2.61 0 0 0 0-2.77M22 32.652c-9.611 0-16.342-6.39-18.922-10.32C5.658 18.39 12.39 12 22 12s16.342 6.39 18.922 10.331C38.342 26.261 31.61 32.652 22 32.652"/><path fill="currentColor" d="M27.44 14.55a9.491 9.491 0 1 0 2.33 13.221 9.51 9.51 0 0 0-2.33-13.22m-.13 11.502A6.49 6.49 0 1 1 22 15.83a6.5 6.5 0 0 1 5.31 10.22"/><path fill="currentColor" d="M21.54 17.05c-1 .7-.65 3.001.81 5.091s3.46 3.25 4.47 2.55.6-3-.86-5.14-3.41-3.2-4.42-2.5"/></svg>