<svg xmlns="http://www.w3.org/2000/svg" fill="none" viewBox="0 0 44 44"><path fill="currentColor" d="M43.607 20.166c-2.8-4.44-10.512-11.942-21.604-11.942a24.25 24.25 0 0 0-9.252 1.83L6.129 3.443A1.503 1.503 0 0 0 4 5.563l5.88 5.881a27.4 27.4 0 0 0-9.481 8.722 2.61 2.61 0 0 0 0 2.77c2.8 4.432 10.512 11.943 21.605 11.943a24.5 24.5 0 0 0 9.421-1.87l6.582 6.561a1.5 1.5 0 0 0 2.12 0 1.49 1.49 0 0 0 0-2.12l-5.87-5.871a27.56 27.56 0 0 0 9.341-8.642 2.61 2.61 0 0 0 .01-2.77M22.003 31.88c-9.613 0-16.344-6.392-18.925-10.332a24.5 24.5 0 0 1 9.002-7.902l2.27 2.27-.15.19a9.492 9.492 0 0 0 13.424 13.073l1.47 1.47a21.1 21.1 0 0 1-7.091 1.23m5.56-7.002-.89-.87s.11 0 .15-.07c1-.7.6-3-.86-5.141s-3.41-3.2-4.42-2.5a2 2 0 0 0-.54 2.05l-2.341-2.34a6.5 6.5 0 0 1 3.34-.92 6.482 6.482 0 0 1 5.562 9.821zm-2.09 2.13a6.49 6.49 0 0 1-7.201-.16 6.5 6.5 0 0 1-1.76-8.801zm6.582 2.341-2.32-2.34a.1.1 0 0 1 0-.05A9.492 9.492 0 0 0 16.5 13.815l-1.43-1.43a21.2 21.2 0 0 1 6.932-1.16c9.612 0 16.343 6.38 18.923 10.322a24.4 24.4 0 0 1-8.871 7.821z"/></svg>